<?xml version="1.0" encoding="UTF-8" standalone="no"?>
<svg
   xmlns:dc="http://purl.org/dc/elements/1.1/"
   xmlns:cc="http://creativecommons.org/ns#"
   xmlns:rdf="http://www.w3.org/1999/02/22-rdf-syntax-ns#"
   xmlns:svg="http://www.w3.org/2000/svg"
   xmlns="http://www.w3.org/2000/svg"
   xmlns:sodipodi="http://sodipodi.sourceforge.net/DTD/sodipodi-0.dtd"
   xmlns:inkscape="http://www.inkscape.org/namespaces/inkscape"
   version="1.1"
   width="608.25mm"
   height="262.25mm"
   viewBox="0 0 2155.2184 929.23307"
   id="svg26"
   sodipodi:docname="ubitx3.svg"
   inkscape:version="0.92.1 r15371">
  <metadata
     id="metadata32">
    <rdf:RDF>
      <cc:Work
         rdf:about="">
        <dc:format>image/svg+xml</dc:format>
        <dc:type
           rdf:resource="http://purl.org/dc/dcmitype/StillImage" />
        <dc:title></dc:title>
      </cc:Work>
    </rdf:RDF>
  </metadata>
  <defs
     id="defs30" />
  <sodipodi:namedview
     pagecolor="#ffffff"
     bordercolor="#666666"
     borderopacity="1"
     objecttolerance="10"
     gridtolerance="10"
     guidetolerance="10"
     inkscape:pageopacity="0"
     inkscape:pageshadow="2"
     inkscape:window-width="1366"
     inkscape:window-height="715"
     id="namedview28"
     showgrid="false"
     inkscape:measure-start="721.602,-72.7524"
     inkscape:measure-end="794.355,150.581"
     inkscape:zoom="1"
     inkscape:cx="295.47722"
     inkscape:cy="770.6949"
     inkscape:window-x="0"
     inkscape:window-y="31"
     inkscape:window-maximized="1"
     inkscape:current-layer="svg26"
     fit-margin-top="5"
     fit-margin-left="5"
     fit-margin-right="5"
     fit-margin-bottom="5" />
  <!-- Front-->
  <!-- Back-->
  <!-- Left-->
  <g
     transform="translate(1478.0031,18.159468)"
     id="g12"
     style="fill:none;stroke:#ff0000;stroke-width:0.88582754;stroke-miterlimit:4;stroke-dasharray:none;stroke-opacity:1">
    <polygon
       style="fill:none;stroke:#ff0000;stroke-width:0.88582754;stroke-miterlimit:4;stroke-dasharray:none;stroke-opacity:1"
       points="240.94508,10.62993 240.94508,0 276.37818,0 276.37818,10.62993 311.81128,10.62993 311.81128,0 347.24438,0 347.24438,10.62993 382.67748,10.62993 382.67748,0 418.11058,0 418.11058,10.62993 453.54368,10.62993 453.54368,0 488.97678,0 488.97678,10.62993 524.40988,10.62993 524.40988,0 559.84298,0 559.84298,10.62993 609.44932,10.62993 609.44932,0 648.42573,0 648.42573,49.60634 659.05566,49.60634 659.05566,99.21268 648.42573,99.21268 648.42573,134.64578 659.05566,134.64578 659.05566,184.25212 648.42573,184.25212 648.42573,233.85846 609.44932,233.85846 609.44932,223.22853 559.84298,223.22853 559.84298,233.85846 524.40988,233.85846 524.40988,223.22853 488.97678,223.22853 488.97678,233.85846 453.54368,233.85846 453.54368,223.22853 418.11058,223.22853 418.11058,233.85846 382.67748,233.85846 382.67748,223.22853 347.24438,223.22853 347.24438,233.85846 311.81128,233.85846 311.81128,223.22853 276.37818,223.22853 276.37818,233.85846 240.94508,233.85846 240.94508,223.22853 205.51198,223.22853 205.51198,233.85846 170.07888,233.85846 170.07888,223.22853 134.64578,223.22853 134.64578,233.85846 99.21268,233.85846 99.21268,223.22853 49.60634,223.22853 49.60634,233.85846 10.62993,233.85846 10.62993,184.25212 0,184.25212 0,134.64578 10.62993,134.64578 10.62993,99.21268 0,99.21268 0,49.60634 10.62993,49.60634 10.62993,0 49.60634,0 49.60634,10.62993 99.21268,10.62993 99.21268,0 134.64578,0 134.64578,10.62993 170.07888,10.62993 170.07888,0 205.51198,0 205.51198,10.62993 "
       id="polygon10" />
  </g>
  <!-- Right-->
  <g
     transform="translate(1478.0031,252.01793)"
     id="g16"
     style="fill:none;stroke:#ff0000;stroke-width:0.88582754;stroke-miterlimit:4;stroke-dasharray:none;stroke-opacity:1">
    <polygon
       style="fill:none;stroke:#ff0000;stroke-width:0.88582754;stroke-miterlimit:4;stroke-dasharray:none;stroke-opacity:1"
       points="240.94508,10.62993 240.94508,0 276.37818,0 276.37818,10.62993 311.81128,10.62993 311.81128,0 347.24438,0 347.24438,10.62993 382.67748,10.62993 382.67748,0 418.11058,0 418.11058,10.62993 453.54368,10.62993 453.54368,0 488.97678,0 488.97678,10.62993 524.40988,10.62993 524.40988,0 559.84298,0 559.84298,10.62993 609.44932,10.62993 609.44932,0 648.42573,0 648.42573,49.60634 659.05566,49.60634 659.05566,99.21268 648.42573,99.21268 648.42573,134.64578 659.05566,134.64578 659.05566,184.25212 648.42573,184.25212 648.42573,233.85846 609.44932,233.85846 609.44932,223.22853 559.84298,223.22853 559.84298,233.85846 524.40988,233.85846 524.40988,223.22853 488.97678,223.22853 488.97678,233.85846 453.54368,233.85846 453.54368,223.22853 418.11058,223.22853 418.11058,233.85846 382.67748,233.85846 382.67748,223.22853 347.24438,223.22853 347.24438,233.85846 311.81128,233.85846 311.81128,223.22853 276.37818,223.22853 276.37818,233.85846 240.94508,233.85846 240.94508,223.22853 205.51198,223.22853 205.51198,233.85846 170.07888,233.85846 170.07888,223.22853 134.64578,223.22853 134.64578,233.85846 99.21268,233.85846 99.21268,223.22853 49.60634,223.22853 49.60634,233.85846 10.62993,233.85846 10.62993,184.25212 0,184.25212 0,134.64578 10.62993,134.64578 10.62993,99.21268 0,99.21268 0,49.60634 10.62993,49.60634 10.62993,0 49.60634,0 49.60634,10.62993 99.21268,10.62993 99.21268,0 134.64578,0 134.64578,10.62993 170.07888,10.62993 170.07888,0 205.51198,0 205.51198,10.62993 "
       id="polygon14" />
  </g>
  <!-- Top-->
  <!-- Bottom-->
  <g
     transform="translate(748.08132,252.01793)"
     id="g24"
     style="fill:none;stroke:#ff0000;stroke-width:0.88582754;stroke-miterlimit:4;stroke-dasharray:none;stroke-opacity:1">
    <polygon
       style="fill:none;stroke:#ff0000;stroke-width:0.88582754;stroke-miterlimit:4;stroke-dasharray:none;stroke-opacity:1"
       points="240.94508,648.42573 240.94508,659.05566 205.51198,659.05566 205.51198,648.42573 170.07888,648.42573 170.07888,659.05566 134.64578,659.05566 134.64578,648.42573 99.21268,648.42573 99.21268,659.05566 49.60634,659.05566 49.60634,648.42573 10.62993,648.42573 10.62993,609.44932 0,609.44932 0,559.84298 10.62993,559.84298 10.62993,524.40988 0,524.40988 0,488.97678 10.62993,488.97678 10.62993,453.54368 0,453.54368 0,418.11058 10.62993,418.11058 10.62993,382.67748 0,382.67748 0,347.24438 10.62993,347.24438 10.62993,311.81128 0,311.81128 0,276.37818 10.62993,276.37818 10.62993,240.94508 0,240.94508 0,205.51198 10.62993,205.51198 10.62993,170.07888 0,170.07888 0,134.64578 10.62993,134.64578 10.62993,99.21268 0,99.21268 0,49.60634 10.62993,49.60634 10.62993,10.62993 49.60634,10.62993 49.60634,0 99.21268,0 99.21268,10.62993 134.64578,10.62993 134.64578,0 170.07888,0 170.07888,10.62993 205.51198,10.62993 205.51198,0 240.94508,0 240.94508,10.62993 276.37818,10.62993 276.37818,0 311.81128,0 311.81128,10.62993 347.24438,10.62993 347.24438,0 382.67748,0 382.67748,10.62993 418.11058,10.62993 418.11058,0 453.54368,0 453.54368,10.62993 488.97678,10.62993 488.97678,0 524.40988,0 524.40988,10.62993 559.84298,10.62993 559.84298,0 595.27608,0 595.27608,10.62993 630.70918,10.62993 630.70918,0 680.31552,0 680.31552,10.62993 719.29193,10.62993 719.29193,49.60634 729.92186,49.60634 729.92186,99.21268 719.29193,99.21268 719.29193,134.64578 729.92186,134.64578 729.92186,170.07888 719.29193,170.07888 719.29193,205.51198 729.92186,205.51198 729.92186,240.94508 719.29193,240.94508 719.29193,276.37818 729.92186,276.37818 729.92186,311.81128 719.29193,311.81128 719.29193,347.24438 729.92186,347.24438 729.92186,382.67748 719.29193,382.67748 719.29193,418.11058 729.92186,418.11058 729.92186,453.54368 719.29193,453.54368 719.29193,488.97678 729.92186,488.97678 729.92186,524.40988 719.29193,524.40988 719.29193,559.84298 729.92186,559.84298 729.92186,609.44932 719.29193,609.44932 719.29193,648.42573 680.31552,648.42573 680.31552,659.05566 630.70918,659.05566 630.70918,648.42573 595.27608,648.42573 595.27608,659.05566 559.84298,659.05566 559.84298,648.42573 524.40988,648.42573 524.40988,659.05566 488.97678,659.05566 488.97678,648.42573 453.54368,648.42573 453.54368,659.05566 418.11058,659.05566 418.11058,648.42573 382.67748,648.42573 382.67748,659.05566 347.24438,659.05566 347.24438,648.42573 311.81128,648.42573 311.81128,659.05566 276.37818,659.05566 276.37818,648.42573 "
       id="polygon22" />
  </g>
  <polygon
     id="polygon6"
     points="0,134.64578 0,99.21268 10.62993,99.21268 10.62993,49.60634 0,49.60634 0,0 49.60634,0 49.60634,10.62993 99.21268,10.62993 99.21268,0 134.64578,0 134.64578,10.62993 170.07888,10.62993 170.07888,0 205.51198,0 205.51198,10.62993 240.94508,10.62993 240.94508,0 276.37818,0 276.37818,10.62993 311.81128,10.62993 311.81128,0 347.24438,0 347.24438,10.62993 382.67748,10.62993 382.67748,0 418.11058,0 418.11058,10.62993 453.54368,10.62993 453.54368,0 488.97678,0 488.97678,10.62993 524.40988,10.62993 524.40988,0 559.84298,0 559.84298,10.62993 595.27608,10.62993 595.27608,0 630.70918,0 630.70918,10.62993 680.31552,10.62993 680.31552,0 729.92186,0 729.92186,49.60634 719.29193,49.60634 719.29193,99.21268 729.92186,99.21268 729.92186,134.64578 719.29193,134.64578 719.29193,184.25212 729.92186,184.25212 729.92186,233.85846 680.31552,233.85846 680.31552,223.22853 630.70918,223.22853 630.70918,233.85846 595.27608,233.85846 595.27608,223.22853 559.84298,223.22853 559.84298,233.85846 524.40988,233.85846 524.40988,223.22853 488.97678,223.22853 488.97678,233.85846 453.54368,233.85846 453.54368,223.22853 418.11058,223.22853 418.11058,233.85846 382.67748,233.85846 382.67748,223.22853 347.24438,223.22853 347.24438,233.85846 311.81128,233.85846 311.81128,223.22853 276.37818,223.22853 276.37818,233.85846 240.94508,233.85846 240.94508,223.22853 205.51198,223.22853 205.51198,233.85846 170.07888,233.85846 170.07888,223.22853 134.64578,223.22853 134.64578,233.85846 99.21268,233.85846 99.21268,223.22853 49.60634,223.22853 49.60634,233.85846 0,233.85846 0,184.25212 10.62993,184.25212 10.62993,134.64578 "
     style="fill:none;stroke:#ff0000;stroke-width:0.88582754;stroke-miterlimit:4;stroke-dasharray:none;stroke-opacity:1"
     transform="translate(748.08132,18.159468)" />
  <ellipse
     style="fill:none;fill-opacity:1;stroke:#ff0000;stroke-width:0.88582754;stroke-miterlimit:4;stroke-dasharray:none;stroke-opacity:1"
     id="path5276"
     cx="1391.5312"
     cy="124.45877"
     rx="15.649164"
     ry="15.649163"
     inkscape:label="Socket BNC" />
  <circle
     style="fill:none;fill-opacity:1;stroke:#ff0000;stroke-width:0.88582754;stroke-miterlimit:4;stroke-dasharray:none;stroke-opacity:1"
     id="path5276-7"
     cx="1002.9293"
     cy="124.45877"
     r="21.734949"
     inkscape:label="Socket PWR" />
  <g
     id="g5322"
     transform="translate(337.13505,178.04149)"
     style="fill:none;stroke:#ff0000;stroke-width:0.88582754;stroke-miterlimit:4;stroke-dasharray:none;stroke-opacity:1">
    <g
       style="fill:none;stroke:#ff0000;stroke-width:0.88582754;stroke-miterlimit:4;stroke-dasharray:none;stroke-opacity:1"
       id="g4"
       transform="translate(-318.97559,-159.88203)">
      <polygon
         id="polygon2"
         points="49.60634,10.62993 99.21268,10.62993 99.21268,0 134.64578,0 134.64578,10.62993 170.07888,10.62993 170.07888,0 205.51198,0 205.51198,10.62993 240.94508,10.62993 240.94508,0 276.37818,0 276.37818,10.62993 311.81128,10.62993 311.81128,0 347.24438,0 347.24438,10.62993 382.67748,10.62993 382.67748,0 418.11058,0 418.11058,10.62993 453.54368,10.62993 453.54368,0 488.97678,0 488.97678,10.62993 524.40988,10.62993 524.40988,0 559.84298,0 559.84298,10.62993 595.27608,10.62993 595.27608,0 630.70918,0 630.70918,10.62993 680.31552,10.62993 680.31552,0 729.92186,0 729.92186,49.60634 719.29193,49.60634 719.29193,99.21268 729.92186,99.21268 729.92186,134.64578 719.29193,134.64578 719.29193,184.25212 729.92186,184.25212 729.92186,233.85846 680.31552,233.85846 680.31552,223.22853 630.70918,223.22853 630.70918,233.85846 595.27608,233.85846 595.27608,223.22853 559.84298,223.22853 559.84298,233.85846 524.40988,233.85846 524.40988,223.22853 488.97678,223.22853 488.97678,233.85846 453.54368,233.85846 453.54368,223.22853 418.11058,223.22853 418.11058,233.85846 382.67748,233.85846 382.67748,223.22853 347.24438,223.22853 347.24438,233.85846 311.81128,233.85846 311.81128,223.22853 276.37818,223.22853 276.37818,233.85846 240.94508,233.85846 240.94508,223.22853 205.51198,223.22853 205.51198,233.85846 170.07888,233.85846 170.07888,223.22853 134.64578,223.22853 134.64578,233.85846 99.21268,233.85846 99.21268,223.22853 49.60634,223.22853 49.60634,233.85846 0,233.85846 0,184.25212 10.62993,184.25212 10.62993,134.64578 0,134.64578 0,99.21268 10.62993,99.21268 10.62993,49.60634 0,49.60634 0,0 49.60634,0 "
         style="fill:none;stroke:#ff0000;stroke-width:0.88582754;stroke-miterlimit:4;stroke-dasharray:none;stroke-opacity:1" />
    </g>
    <g
       style="fill:none;stroke:#ff0000;stroke-width:0.24999999;stroke-miterlimit:4;stroke-dasharray:none;stroke-opacity:1"
       transform="matrix(3.5433102,0,0,3.5433102,-196.59116,-988.49221)"
       id="g5453"
       inkscape:label="Tuning">
      <circle
         inkscape:label="Tuning hole"
         transform="translate(28.91518)"
         r="3.3822589"
         cy="260"
         cx="107.34524"
         id="path5162-5-5"
         style="fill:none;fill-opacity:1;stroke:#ff0000;stroke-width:0.24999999;stroke-miterlimit:4;stroke-dasharray:none;stroke-opacity:1" />
    </g>
    <g
       style="fill:none;stroke:#ff0000;stroke-width:0.24999999;stroke-miterlimit:4;stroke-dasharray:none;stroke-opacity:1"
       transform="matrix(3.5433102,0,0,3.5433102,-141.8101,-988.4939)"
       id="g5520"
       inkscape:label="LCD">
      <rect
         transform="translate(3.0000006,-9.0000042)"
         inkscape:label="LCD Cutout"
         y="257.12164"
         x="14.621643"
         height="23.756714"
         width="70.756714"
         id="rect5098"
         style="fill:none;fill-opacity:1;stroke:#ff0000;stroke-width:0.24999999;stroke-miterlimit:4;stroke-dasharray:none;stroke-opacity:1" />
      <circle
         transform="translate(3.0000006,-9.0000042)"
         inkscape:label="LCD PCB hole 1"
         r="1.3917061"
         cy="284.5"
         cx="12.5"
         id="path5106"
         style="fill:none;fill-opacity:1;stroke:#ff0000;stroke-width:0.24999999;stroke-miterlimit:4;stroke-dasharray:none;stroke-opacity:1" />
      <circle
         transform="translate(3.0000006,-9.0000042)"
         inkscape:label="LCD PCB hole 2"
         r="1.3917061"
         cy="253.5"
         cx="12.5"
         id="path5106-3"
         style="fill:none;fill-opacity:1;stroke:#ff0000;stroke-width:0.24999999;stroke-miterlimit:4;stroke-dasharray:none;stroke-opacity:1" />
      <circle
         transform="translate(3.0000006,-9.0000042)"
         inkscape:label="LCD PCB hole 3"
         r="1.3917061"
         cy="253.5"
         cx="87.5"
         id="path5106-6"
         style="fill:none;fill-opacity:1;stroke:#ff0000;stroke-width:0.24999999;stroke-miterlimit:4;stroke-dasharray:none;stroke-opacity:1" />
      <circle
         transform="translate(3.0000006,-9.0000042)"
         inkscape:label="LCD PCB hole 4"
         r="1.3917061"
         cy="284.5"
         cx="87.5"
         id="path5106-7"
         style="fill:none;fill-opacity:1;stroke:#ff0000;stroke-width:0.24999999;stroke-miterlimit:4;stroke-dasharray:none;stroke-opacity:1" />
    </g>
    <circle
       inkscape:label="Socket 3"
       r="10.051805"
       cy="37.296104"
       cx="116.85155"
       id="path5206-2"
       style="fill:none;fill-opacity:1;stroke:#ff0000;stroke-width:0.88582754;stroke-miterlimit:4;stroke-dasharray:none;stroke-opacity:1" />
    <circle
       inkscape:label="Socket 2"
       r="10.051805"
       cy="37.296104"
       cx="45.985374"
       id="path5206-9"
       style="fill:none;fill-opacity:1;stroke:#ff0000;stroke-width:0.88582754;stroke-miterlimit:4;stroke-dasharray:none;stroke-opacity:1" />
    <circle
       inkscape:label="Socket 1"
       r="10.051805"
       cy="37.296104"
       cx="-24.880835"
       id="path5206"
       style="fill:none;fill-opacity:1;stroke:#ff0000;stroke-width:0.88582754;stroke-miterlimit:4;stroke-dasharray:none;stroke-opacity:1" />
    <circle
       style="fill:none;fill-opacity:1;stroke:#ff0000;stroke-width:0.88582754;stroke-miterlimit:4;stroke-dasharray:none;stroke-opacity:1"
       id="path5162-5"
       cx="67.231544"
       cy="-194.25108"
       r="11.984393"
       transform="rotate(-90)"
       inkscape:label="Volume hole" />
    <rect
       transform="rotate(-90)"
       style="fill:none;fill-opacity:1;stroke:#ff0000;stroke-width:0.88582754;stroke-miterlimit:4;stroke-dasharray:none;stroke-opacity:1"
       id="rect5444"
       width="5.7808909"
       height="5.7808909"
       x="64.341095"
       y="-224.63495"
       inkscape:label="Volume Tab" />
  </g>
  <g
     id="g5414"
     style="fill:none;stroke:#ff0000;stroke-width:0.88582754;stroke-miterlimit:4;stroke-dasharray:none;stroke-opacity:1"
     transform="translate(0.44291411,0.44292411)">
    <g
       style="fill:none;stroke:#ff0000;stroke-width:0.88582754;stroke-miterlimit:4;stroke-dasharray:none;stroke-opacity:1"
       id="g20"
       transform="translate(17.71655,251.57501)">
      <polygon
         id="polygon18"
         points="276.37818,659.05566 276.37818,648.42573 240.94508,648.42573 240.94508,659.05566 205.51198,659.05566 205.51198,648.42573 170.07888,648.42573 170.07888,659.05566 134.64578,659.05566 134.64578,648.42573 99.21268,648.42573 99.21268,659.05566 49.60634,659.05566 49.60634,648.42573 10.62993,648.42573 10.62993,609.44932 0,609.44932 0,559.84298 10.62993,559.84298 10.62993,524.40988 0,524.40988 0,488.97678 10.62993,488.97678 10.62993,453.54368 0,453.54368 0,418.11058 10.62993,418.11058 10.62993,382.67748 0,382.67748 0,347.24438 10.62993,347.24438 10.62993,311.81128 0,311.81128 0,276.37818 10.62993,276.37818 10.62993,240.94508 0,240.94508 0,205.51198 10.62993,205.51198 10.62993,170.07888 0,170.07888 0,134.64578 10.62993,134.64578 10.62993,99.21268 0,99.21268 0,49.60634 10.62993,49.60634 10.62993,10.62993 49.60634,10.62993 49.60634,0 99.21268,0 99.21268,10.62993 134.64578,10.62993 134.64578,0 170.07888,0 170.07888,10.62993 205.51198,10.62993 205.51198,0 240.94508,0 240.94508,10.62993 276.37818,10.62993 276.37818,0 311.81128,0 311.81128,10.62993 347.24438,10.62993 347.24438,0 382.67748,0 382.67748,10.62993 418.11058,10.62993 418.11058,0 453.54368,0 453.54368,10.62993 488.97678,10.62993 488.97678,0 524.40988,0 524.40988,10.62993 559.84298,10.62993 559.84298,0 595.27608,0 595.27608,10.62993 630.70918,10.62993 630.70918,0 680.31552,0 680.31552,10.62993 719.29193,10.62993 719.29193,49.60634 729.92186,49.60634 729.92186,99.21268 719.29193,99.21268 719.29193,134.64578 729.92186,134.64578 729.92186,170.07888 719.29193,170.07888 719.29193,205.51198 729.92186,205.51198 729.92186,240.94508 719.29193,240.94508 719.29193,276.37818 729.92186,276.37818 729.92186,311.81128 719.29193,311.81128 719.29193,347.24438 729.92186,347.24438 729.92186,382.67748 719.29193,382.67748 719.29193,418.11058 729.92186,418.11058 729.92186,453.54368 719.29193,453.54368 719.29193,488.97678 729.92186,488.97678 729.92186,524.40988 719.29193,524.40988 719.29193,559.84298 729.92186,559.84298 729.92186,609.44932 719.29193,609.44932 719.29193,648.42573 680.31552,648.42573 680.31552,659.05566 630.70918,659.05566 630.70918,648.42573 595.27608,648.42573 595.27608,659.05566 559.84298,659.05566 559.84298,648.42573 524.40988,648.42573 524.40988,659.05566 488.97678,659.05566 488.97678,648.42573 453.54368,648.42573 453.54368,659.05566 418.11058,659.05566 418.11058,648.42573 382.67748,648.42573 382.67748,659.05566 347.24438,659.05566 347.24438,648.42573 311.81128,648.42573 311.81128,659.05566 "
         style="fill:none;stroke:#ff0000;stroke-width:0.88582754;stroke-miterlimit:4;stroke-dasharray:none;stroke-opacity:1" />
    </g>
    <ellipse
       ry="4.8913341"
       rx="4.8913336"
       cy="327.75623"
       cx="713.97699"
       id="path5455"
       style="fill:none;fill-opacity:1;stroke:#ff0000;stroke-width:0.88582754;stroke-miterlimit:4;stroke-dasharray:none;stroke-opacity:1" />
    <ellipse
       ry="4.8913341"
       rx="4.8913336"
       cy="327.75623"
       cx="210.82693"
       id="path5455-3"
       style="fill:none;fill-opacity:1;stroke:#ff0000;stroke-width:0.88582754;stroke-miterlimit:4;stroke-dasharray:none;stroke-opacity:1" />
    <ellipse
       ry="4.8913341"
       rx="4.8913336"
       cy="788.38647"
       cx="713.97699"
       id="path5455-6"
       style="fill:none;fill-opacity:1;stroke:#ff0000;stroke-width:0.88582754;stroke-miterlimit:4;stroke-dasharray:none;stroke-opacity:1" />
    <ellipse
       ry="4.8913341"
       rx="4.8913336"
       cy="788.38647"
       cx="210.82693"
       id="path5455-6-7"
       style="fill:none;fill-opacity:1;stroke:#ff0000;stroke-width:0.88582754;stroke-miterlimit:4;stroke-dasharray:none;stroke-opacity:1" />
  </g>
</svg>
